<svg width="9" height="18" viewBox="0 0 9 18" fill="none" xmlns="http://www.w3.org/2000/svg">
<path d="M7.77273 4.09091V13.5C7.77273 14.368 7.42792 15.2004 6.81417 15.8142C6.20041 16.4279 5.36798 16.7727 4.5 16.7727C3.63202 16.7727 2.79959 16.4279 2.18583 15.8142C1.57208 15.2004 1.22727 14.368 1.22727 13.5V3.27273C1.22727 2.73024 1.44278 2.20997 1.82637 1.82637C2.20997 1.44278 2.73024 1.22727 3.27273 1.22727C3.81522 1.22727 4.33548 1.44278 4.71908 1.82637C5.10268 2.20997 5.31818 2.73024 5.31818 3.27273V11.8636C5.31818 12.0806 5.23198 12.2887 5.07854 12.4422C4.9251 12.5956 4.717 12.6818 4.5 12.6818C4.283 12.6818 4.0749 12.5956 3.92146 12.4422C3.76802 12.2887 3.68182 12.0806 3.68182 11.8636V4.09091H2.45455V11.8636C2.45455 12.4061 2.67005 12.9264 3.05365 13.31C3.43724 13.6936 3.95751 13.9091 4.5 13.9091C5.04249 13.9091 5.56276 13.6936 5.94635 13.31C6.32995 12.9264 6.54545 12.4061 6.54545 11.8636V3.27273C6.54545 2.40475 6.20065 1.57232 5.58689 0.95856C4.97314 0.344804 4.14071 0 3.27273 0C2.40475 0 1.57231 0.344804 0.958559 0.95856C0.344804 1.57232 0 2.40475 0 3.27273V13.5C0 14.6935 0.474106 15.8381 1.31802 16.682C2.16193 17.5259 3.30653 18 4.5 18C5.69347 18 6.83807 17.5259 7.68198 16.682C8.52589 15.8381 9 14.6935 9 13.5V4.09091H7.77273Z" fill="#737373"/>
</svg>
