<svg width="14" height="16" viewBox="0 0 14 16" fill="none" xmlns="http://www.w3.org/2000/svg">
<path d="M10.1111 9.6H3.88889C3.68261 9.6 3.48478 9.68429 3.33892 9.83432C3.19306 9.98434 3.11111 10.1878 3.11111 10.4C3.11111 10.6122 3.19306 10.8157 3.33892 10.9657C3.48478 11.1157 3.68261 11.2 3.88889 11.2H10.1111C10.3174 11.2 10.5152 11.1157 10.6611 10.9657C10.8069 10.8157 10.8889 10.6122 10.8889 10.4C10.8889 10.1878 10.8069 9.98434 10.6611 9.83432C10.5152 9.68429 10.3174 9.6 10.1111 9.6ZM10.1111 6.4H5.44444C5.23816 6.4 5.04033 6.48429 4.89447 6.63432C4.74861 6.78434 4.66667 6.98783 4.66667 7.2C4.66667 7.41217 4.74861 7.61566 4.89447 7.76569C5.04033 7.91571 5.23816 8 5.44444 8H10.1111C10.3174 8 10.5152 7.91571 10.6611 7.76569C10.8069 7.61566 10.8889 7.41217 10.8889 7.2C10.8889 6.98783 10.8069 6.78434 10.6611 6.63432C10.5152 6.48429 10.3174 6.4 10.1111 6.4ZM13.2222 1.6H10.8889V0.8C10.8889 0.587827 10.8069 0.384344 10.6611 0.234315C10.5152 0.0842854 10.3174 0 10.1111 0C9.90483 0 9.707 0.0842854 9.56114 0.234315C9.41528 0.384344 9.33333 0.587827 9.33333 0.8V1.6H7.77778V0.8C7.77778 0.587827 7.69583 0.384344 7.54997 0.234315C7.40411 0.0842854 7.20628 0 7 0C6.79372 0 6.59589 0.0842854 6.45003 0.234315C6.30417 0.384344 6.22222 0.587827 6.22222 0.8V1.6H4.66667V0.8C4.66667 0.587827 4.58472 0.384344 4.43886 0.234315C4.293 0.0842854 4.09517 0 3.88889 0C3.68261 0 3.48478 0.0842854 3.33892 0.234315C3.19306 0.384344 3.11111 0.587827 3.11111 0.8V1.6H0.777778C0.571498 1.6 0.373667 1.68429 0.227806 1.83431C0.0819442 1.98434 0 2.18783 0 2.4V13.6C0 14.2365 0.245833 14.847 0.683418 15.2971C1.121 15.7471 1.71449 16 2.33333 16H11.6667C12.2855 16 12.879 15.7471 13.3166 15.2971C13.7542 14.847 14 14.2365 14 13.6V2.4C14 2.18783 13.9181 1.98434 13.7722 1.83431C13.6263 1.68429 13.4285 1.6 13.2222 1.6ZM12.4444 13.6C12.4444 13.8122 12.3625 14.0157 12.2166 14.1657C12.0708 14.3157 11.8729 14.4 11.6667 14.4H2.33333C2.12705 14.4 1.92922 14.3157 1.78336 14.1657C1.6375 14.0157 1.55556 13.8122 1.55556 13.6V3.2H3.11111V4C3.11111 4.21217 3.19306 4.41566 3.33892 4.56569C3.48478 4.71571 3.68261 4.8 3.88889 4.8C4.09517 4.8 4.293 4.71571 4.43886 4.56569C4.58472 4.41566 4.66667 4.21217 4.66667 4V3.2H6.22222V4C6.22222 4.21217 6.30417 4.41566 6.45003 4.56569C6.59589 4.71571 6.79372 4.8 7 4.8C7.20628 4.8 7.40411 4.71571 7.54997 4.56569C7.69583 4.41566 7.77778 4.21217 7.77778 4V3.2H9.33333V4C9.33333 4.21217 9.41528 4.41566 9.56114 4.56569C9.707 4.71571 9.90483 4.8 10.1111 4.8C10.3174 4.8 10.5152 4.71571 10.6611 4.56569C10.8069 4.41566 10.8889 4.21217 10.8889 4V3.2H12.4444V13.6Z" fill="white"/>
</svg>
