<svg width="50" height="50" viewBox="0 0 50 50" fill="none" xmlns="http://www.w3.org/2000/svg">
<path d="M39.5833 39.5835H10.4167V16.6668H39.5833M33.3333 2.0835V6.25016H16.6667V2.0835H12.5V6.25016H10.4167C8.10417 6.25016 6.25 8.10433 6.25 10.4168V39.5835C6.25 40.6886 6.68899 41.7484 7.47039 42.5298C8.25179 43.3112 9.3116 43.7502 10.4167 43.7502H39.5833C40.6884 43.7502 41.7482 43.3112 42.5296 42.5298C43.311 41.7484 43.75 40.6886 43.75 39.5835V10.4168C43.75 9.31176 43.311 8.25195 42.5296 7.47055C41.7482 6.68915 40.6884 6.25016 39.5833 6.25016H37.5V2.0835M35.4167 25.0002H25V35.4168H35.4167V25.0002Z" fill="#6B6B6B"/>
</svg>
