<svg width="31" height="30" viewBox="0 0 31 30" fill="none" xmlns="http://www.w3.org/2000/svg">
<circle cx="15.0949" cy="14.9508" r="14.9508" fill="#0E8080"/>
<path d="M18.1111 16.6H11.8889C11.6826 16.6 11.4848 16.6843 11.3389 16.8343C11.1931 16.9843 11.1111 17.1878 11.1111 17.4C11.1111 17.6122 11.1931 17.8157 11.3389 17.9657C11.4848 18.1157 11.6826 18.2 11.8889 18.2H18.1111C18.3174 18.2 18.5152 18.1157 18.6611 17.9657C18.8069 17.8157 18.8889 17.6122 18.8889 17.4C18.8889 17.1878 18.8069 16.9843 18.6611 16.8343C18.5152 16.6843 18.3174 16.6 18.1111 16.6ZM18.1111 13.4H13.4444C13.2382 13.4 13.0403 13.4843 12.8945 13.6343C12.7486 13.7843 12.6667 13.9878 12.6667 14.2C12.6667 14.4122 12.7486 14.6157 12.8945 14.7657C13.0403 14.9157 13.2382 15 13.4444 15H18.1111C18.3174 15 18.5152 14.9157 18.6611 14.7657C18.8069 14.6157 18.8889 14.4122 18.8889 14.2C18.8889 13.9878 18.8069 13.7843 18.6611 13.6343C18.5152 13.4843 18.3174 13.4 18.1111 13.4ZM21.2222 8.6H18.8889V7.8C18.8889 7.58783 18.8069 7.38434 18.6611 7.23431C18.5152 7.08429 18.3174 7 18.1111 7C17.9048 7 17.707 7.08429 17.5611 7.23431C17.4153 7.38434 17.3333 7.58783 17.3333 7.8V8.6H15.7778V7.8C15.7778 7.58783 15.6958 7.38434 15.55 7.23431C15.4041 7.08429 15.2063 7 15 7C14.7937 7 14.5959 7.08429 14.45 7.23431C14.3042 7.38434 14.2222 7.58783 14.2222 7.8V8.6H12.6667V7.8C12.6667 7.58783 12.5847 7.38434 12.4389 7.23431C12.293 7.08429 12.0952 7 11.8889 7C11.6826 7 11.4848 7.08429 11.3389 7.23431C11.1931 7.38434 11.1111 7.58783 11.1111 7.8V8.6H8.77778C8.5715 8.6 8.37367 8.68429 8.22781 8.83431C8.08194 8.98434 8 9.18783 8 9.4V20.6C8 21.2365 8.24583 21.847 8.68342 22.2971C9.121 22.7471 9.71449 23 10.3333 23H19.6667C20.2855 23 20.879 22.7471 21.3166 22.2971C21.7542 21.847 22 21.2365 22 20.6V9.4C22 9.18783 21.9181 8.98434 21.7722 8.83431C21.6263 8.68429 21.4285 8.6 21.2222 8.6ZM20.4444 20.6C20.4444 20.8122 20.3625 21.0157 20.2166 21.1657C20.0708 21.3157 19.8729 21.4 19.6667 21.4H10.3333C10.1271 21.4 9.92922 21.3157 9.78336 21.1657C9.6375 21.0157 9.55556 20.8122 9.55556 20.6V10.2H11.1111V11C11.1111 11.2122 11.1931 11.4157 11.3389 11.5657C11.4848 11.7157 11.6826 11.8 11.8889 11.8C12.0952 11.8 12.293 11.7157 12.4389 11.5657C12.5847 11.4157 12.6667 11.2122 12.6667 11V10.2H14.2222V11C14.2222 11.2122 14.3042 11.4157 14.45 11.5657C14.5959 11.7157 14.7937 11.8 15 11.8C15.2063 11.8 15.4041 11.7157 15.55 11.5657C15.6958 11.4157 15.7778 11.2122 15.7778 11V10.2H17.3333V11C17.3333 11.2122 17.4153 11.4157 17.5611 11.5657C17.707 11.7157 17.9048 11.8 18.1111 11.8C18.3174 11.8 18.5152 11.7157 18.6611 11.5657C18.8069 11.4157 18.8889 11.2122 18.8889 11V10.2H20.4444V20.6Z" fill="white"/>
</svg>
