<svg width="16" height="16" viewBox="0 0 16 16" fill="none" xmlns="http://www.w3.org/2000/svg">
<path d="M3.72479 6.88005C4.92086 9.23065 6.84785 11.1493 9.19845 12.3537L11.0258 10.5264C11.25 10.3021 11.5823 10.2274 11.873 10.327C12.8033 10.6344 13.8083 10.8005 14.8382 10.8005C15.2951 10.8005 15.6688 11.1743 15.6688 11.6311V14.5299C15.6688 14.9867 15.2951 15.3605 14.8382 15.3605C7.03889 15.3605 0.718018 9.03961 0.718018 1.24027C0.718018 0.783438 1.09179 0.409668 1.54862 0.409668H4.45572C4.91255 0.409668 5.28632 0.783438 5.28632 1.24027C5.28632 2.27852 5.45244 3.27524 5.75977 4.20552C5.85113 4.49623 5.78468 4.82016 5.55212 5.05273L3.72479 6.88005Z" fill="white"/>
</svg>
