<svg width="31" height="30" viewBox="0 0 31 30" fill="none" xmlns="http://www.w3.org/2000/svg">
<circle cx="15.1933" cy="14.9508" r="14.9508" fill="#0E8080"/>
<path d="M10.7248 14.8801C11.9209 17.2307 13.8479 19.1493 16.1985 20.3537L18.0258 18.5264C18.25 18.3021 18.5823 18.2274 18.873 18.327C19.8033 18.6344 20.8083 18.8005 21.8382 18.8005C22.2951 18.8005 22.6688 19.1743 22.6688 19.6311V22.5299C22.6688 22.9867 22.2951 23.3605 21.8382 23.3605C14.0389 23.3605 7.71802 17.0396 7.71802 9.24027C7.71802 8.78344 8.09179 8.40967 8.54862 8.40967H11.4557C11.9126 8.40967 12.2863 8.78344 12.2863 9.24027C12.2863 10.2785 12.4524 11.2752 12.7598 12.2055C12.8511 12.4962 12.7847 12.8202 12.5521 13.0527L10.7248 14.8801Z" fill="white"/>
</svg>
