<svg width="35" height="35" viewBox="0 0 35 35" fill="none" xmlns="http://www.w3.org/2000/svg">
<path d="M17.5 0.367188C14.1115 0.367187 10.799 1.37201 7.98153 3.25459C5.16405 5.13716 2.96809 7.81295 1.67135 10.9436C0.374611 14.0742 0.0353241 17.519 0.696398 20.8424C1.35747 24.1659 2.98921 27.2187 5.38528 29.6147C7.78135 32.0108 10.8341 33.6425 14.1576 34.3036C17.481 34.9647 20.9258 34.6254 24.0565 33.3287C27.1871 32.0319 29.8628 29.836 31.7454 27.0185C33.628 24.201 34.6328 20.8886 34.6328 17.5C34.6275 12.9577 32.8207 8.60303 29.6088 5.39116C26.397 2.17929 22.0423 0.372522 17.5 0.367188ZM17.5 32.6172C14.5101 32.6172 11.5874 31.7306 9.10135 30.0695C6.61534 28.4084 4.67773 26.0474 3.53355 23.2851C2.38936 20.5228 2.08999 17.4832 2.67329 14.5508C3.25659 11.6183 4.69637 8.92471 6.81054 6.81053C8.92472 4.69636 11.6183 3.25659 14.5508 2.67329C17.4832 2.08999 20.5228 2.38936 23.2851 3.53354C26.0474 4.67772 28.4084 6.61533 30.0695 9.10134C31.7306 11.5874 32.6172 14.5101 32.6172 17.5C32.6128 21.508 31.0186 25.3505 28.1846 28.1846C25.3505 31.0186 21.508 32.6127 17.5 32.6172ZM27.9141 17.5C27.9141 17.7673 27.8079 18.0236 27.6189 18.2126C27.4299 18.4016 27.1735 18.5078 26.9063 18.5078H17.5C17.2327 18.5078 16.9764 18.4016 16.7874 18.2126C16.5984 18.0236 16.4922 17.7673 16.4922 17.5V8.09375C16.4922 7.82646 16.5984 7.57012 16.7874 7.38112C16.9764 7.19212 17.2327 7.08594 17.5 7.08594C17.7673 7.08594 18.0236 7.19212 18.2126 7.38112C18.4016 7.57012 18.5078 7.82646 18.5078 8.09375V16.4922H26.9063C27.1735 16.4922 27.4299 16.5984 27.6189 16.7874C27.8079 16.9764 27.9141 17.2327 27.9141 17.5Z" fill="black"/>
</svg>
