<svg width="18" height="18" viewBox="0 0 18 18" fill="none" xmlns="http://www.w3.org/2000/svg">
<path d="M9.00002 0.666668C13.6025 0.666668 17.3334 4.3975 17.3334 9C17.3334 13.6025 13.6025 17.3333 9.00002 17.3333C4.39752 17.3333 0.666687 13.6025 0.666687 9C0.666687 4.3975 4.39752 0.666668 9.00002 0.666668ZM9.00002 2.33333C7.23191 2.33333 5.53622 3.03571 4.28598 4.28596C3.03573 5.5362 2.33335 7.23189 2.33335 9C2.33335 10.7681 3.03573 12.4638 4.28598 13.714C5.53622 14.9643 7.23191 15.6667 9.00002 15.6667C10.7681 15.6667 12.4638 14.9643 13.7141 13.714C14.9643 12.4638 15.6667 10.7681 15.6667 9C15.6667 7.23189 14.9643 5.5362 13.7141 4.28596C12.4638 3.03571 10.7681 2.33333 9.00002 2.33333ZM9.00002 4C9.20413 4.00003 9.40113 4.07496 9.55366 4.2106C9.70619 4.34623 9.80364 4.53313 9.82752 4.73583L9.83335 4.83333V8.655L12.0892 10.9108C12.2386 11.0608 12.3254 11.262 12.3319 11.4737C12.3383 11.6853 12.264 11.8914 12.124 12.0502C11.984 12.209 11.7887 12.3086 11.578 12.3287C11.3672 12.3487 11.1567 12.2878 10.9892 12.1583L10.9109 12.0892L8.41085 9.58917C8.28134 9.45954 8.19816 9.29084 8.17419 9.10917L8.16669 9V4.83333C8.16669 4.61232 8.25448 4.40036 8.41076 4.24408C8.56705 4.0878 8.77901 4 9.00002 4Z" fill="black"/>
</svg>
