<svg width="18" height="20" viewBox="0 0 18 20" fill="none" xmlns="http://www.w3.org/2000/svg">
<path d="M6.6 1V6.6L1 16.2V18.6H17V16.2L11.4 6.6V1M13.8 10.6C8.2 8.2 9 13.8 4.2 11.4M4.2 1H13.8M11.4 14.6C11.6122 14.6 11.8157 14.5157 11.9657 14.3657C12.1157 14.2157 12.2 14.0122 12.2 13.8C12.2 13.5878 12.1157 13.3843 11.9657 13.2343C11.8157 13.0843 11.6122 13 11.4 13C11.1878 13 10.9843 13.0843 10.8343 13.2343C10.6843 13.3843 10.6 13.5878 10.6 13.8C10.6 14.0122 10.6843 14.2157 10.8343 14.3657C10.9843 14.5157 11.1878 14.6 11.4 14.6ZM6.6 16.2C6.81217 16.2 7.01566 16.1157 7.16569 15.9657C7.31571 15.8157 7.4 15.6122 7.4 15.4C7.4 15.1878 7.31571 14.9843 7.16569 14.8343C7.01566 14.6843 6.81217 14.6 6.6 14.6C6.38783 14.6 6.18434 14.6843 6.03431 14.8343C5.88429 14.9843 5.8 15.1878 5.8 15.4C5.8 15.6122 5.88429 15.8157 6.03431 15.9657C6.18434 16.1157 6.38783 16.2 6.6 16.2Z" stroke="black" stroke-width="2"/>
</svg>
