<svg width="22" height="18" viewBox="0 0 22 18" fill="none" xmlns="http://www.w3.org/2000/svg">
<path d="M6.4873 5.61523L11.4873 9.6537L16.4873 5.61523" stroke="black" stroke-linecap="round" stroke-linejoin="round"/>
<path d="M1.4873 14.8462V3.30769C1.4873 2.69565 1.69802 2.10868 2.07309 1.67591C2.44816 1.24313 2.95687 1 3.4873 1H19.4873C20.0177 1 20.5264 1.24313 20.9015 1.67591C21.2766 2.10868 21.4873 2.69565 21.4873 3.30769V14.8462C21.4873 15.4582 21.2766 16.0452 20.9015 16.4779C20.5264 16.9107 20.0177 17.1538 19.4873 17.1538H3.4873C2.95687 17.1538 2.44816 16.9107 2.07309 16.4779C1.69802 16.0452 1.4873 15.4582 1.4873 14.8462Z" stroke="black"/>
</svg>
