<svg width="21" height="15" viewBox="0 0 21 15" fill="none" xmlns="http://www.w3.org/2000/svg">
<path d="M20.5814 7.10687C19.7972 5.07858 18.436 3.32451 16.6658 2.06145C14.8956 0.798393 12.7941 0.0817176 10.6211 0C8.44804 0.0817176 6.34656 0.798393 4.57639 2.06145C2.80622 3.32451 1.44494 5.07858 0.660811 7.10687C0.607855 7.25334 0.607855 7.41374 0.660811 7.56021C1.44494 9.58851 2.80622 11.3426 4.57639 12.6056C6.34656 13.8687 8.44804 14.5854 10.6211 14.6671C12.7941 14.5854 14.8956 13.8687 16.6658 12.6056C18.436 11.3426 19.7972 9.58851 20.5814 7.56021C20.6343 7.41374 20.6343 7.25334 20.5814 7.10687ZM10.6211 13.3337C7.08766 13.3337 3.35422 10.7136 2.00085 7.33354C3.35422 3.95345 7.08766 1.33337 10.6211 1.33337C14.1545 1.33337 17.888 3.95345 19.2413 7.33354C17.888 10.7136 14.1545 13.3337 10.6211 13.3337Z" fill="#4B4B4B"/>
<path d="M10.6214 3.33343C9.83023 3.33343 9.05685 3.56803 8.39903 4.00757C7.74122 4.44711 7.22852 5.07184 6.92576 5.80276C6.623 6.53369 6.54378 7.33798 6.69813 8.11392C6.85247 8.88987 7.23345 9.60262 7.79287 10.162C8.3523 10.7215 9.06505 11.1024 9.841 11.2568C10.6169 11.4111 11.4212 11.3319 12.1522 11.0292C12.8831 10.7264 13.5078 10.2137 13.9474 9.55589C14.3869 8.89807 14.6215 8.12469 14.6215 7.33354C14.6215 6.27265 14.2001 5.2552 13.4499 4.50503C12.6997 3.75487 11.6823 3.33343 10.6214 3.33343ZM10.6214 10.0003C10.0939 10.0003 9.57836 9.84388 9.13982 9.55086C8.70127 9.25783 8.35947 8.84134 8.15763 8.35406C7.95579 7.86678 7.90298 7.33058 8.00588 6.81329C8.10877 6.29599 8.36276 5.82082 8.73571 5.44787C9.10866 5.07492 9.58383 4.82094 10.1011 4.71804C10.6184 4.61514 11.1546 4.66795 11.6419 4.86979C12.1292 5.07163 12.5457 5.41344 12.8387 5.85198C13.1317 6.29052 13.2881 6.80611 13.2881 7.33354C13.2881 8.04081 13.0072 8.7191 12.507 9.21921C12.0069 9.71932 11.3286 10.0003 10.6214 10.0003Z" fill="#4B4B4B"/>
</svg>
