<svg width="24" height="24" viewBox="0 0 24 24" fill="none" xmlns="http://www.w3.org/2000/svg">
  <mask id="path-1-inside-1_5_799" fill="white">
    <path d="M5.14286 19.8599H9.36229V13.1504H14.6377V19.8599H18.8571V9.59894L12 4.42513L5.14286 9.59894V19.8599ZM4 21V9.02888L12 3L20 9.02888V21H13.4949V14.2905H10.5051V21H4Z"/>
  </mask>
  <path d="M5.14286 19.8599H3.14286V21.8599H5.14286V19.8599ZM9.36229 19.8599V21.8599H11.3623V19.8599H9.36229ZM9.36229 13.1504V11.1504H7.36229V13.1504H9.36229ZM14.6377 13.1504H16.6377V11.1504H14.6377V13.1504ZM14.6377 19.8599H12.6377V21.8599H14.6377V19.8599ZM18.8571 19.8599V21.8599H20.8571V19.8599H18.8571ZM18.8571 9.59894H20.8571V8.60254L20.0618 8.0024L18.8571 9.59894ZM12 4.42513L13.2046 2.8286L12 1.91971L10.7954 2.8286L12 4.42513ZM5.14286 9.59894L3.93825 8.0024L3.14286 8.60254V9.59894H5.14286ZM4 21H2V23H4V21ZM4 9.02888L2.79631 7.43165L2 8.03176V9.02888H4ZM12 3L13.2037 1.40277L12 0.495661L10.7963 1.40277L12 3ZM20 9.02888H22V8.03176L21.2037 7.43165L20 9.02888ZM20 21V23H22V21H20ZM13.4949 21H11.4949V23H13.4949V21ZM13.4949 14.2905H15.4949V12.2905H13.4949V14.2905ZM10.5051 14.2905V12.2905H8.50514V14.2905H10.5051ZM10.5051 21V23H12.5051V21H10.5051ZM5.14286 21.8599H9.36229V17.8599H5.14286V21.8599ZM11.3623 19.8599V13.1504H7.36229V19.8599H11.3623ZM9.36229 15.1504H14.6377V11.1504H9.36229V15.1504ZM12.6377 13.1504V19.8599H16.6377V13.1504H12.6377ZM14.6377 21.8599H18.8571V17.8599H14.6377V21.8599ZM20.8571 19.8599V9.59894H16.8571V19.8599H20.8571ZM20.0618 8.0024L13.2046 2.8286L10.7954 6.02167L17.6525 11.1955L20.0618 8.0024ZM10.7954 2.8286L3.93825 8.0024L6.34746 11.1955L13.2046 6.02167L10.7954 2.8286ZM3.14286 9.59894V19.8599H7.14286V9.59894H3.14286ZM6 21V9.02888H2V21H6ZM5.20369 10.6261L13.2037 4.59723L10.7963 1.40277L2.79631 7.43165L5.20369 10.6261ZM10.7963 4.59723L18.7963 10.6261L21.2037 7.43165L13.2037 1.40277L10.7963 4.59723ZM18 9.02888V21H22V9.02888H18ZM20 19H13.4949V23H20V19ZM15.4949 21V14.2905H11.4949V21H15.4949ZM13.4949 12.2905H10.5051V16.2905H13.4949V12.2905ZM8.50514 14.2905V21H12.5051V14.2905H8.50514ZM10.5051 19H4V23H10.5051V19Z" fill="white" mask="url(#path-1-inside-1_5_799)"/>
</svg>
