<svg width="16" height="18" viewBox="0 0 16 18" fill="none" xmlns="http://www.w3.org/2000/svg">
<mask id="path-1-inside-1_13_1069" fill="white">
<path d="M1.14286 16.8599H5.36229V10.1504H10.6377V16.8599H14.8571V6.59894L8 1.42513L1.14286 6.59894V16.8599ZM0 18V6.02888L8 0L16 6.02888V18H9.49486V11.2905H6.50514V18H0Z"/>
</mask>
<path d="M1.14286 16.8599H-0.857143V18.8599H1.14286V16.8599ZM5.36229 16.8599V18.8599H7.36229V16.8599H5.36229ZM5.36229 10.1504V8.15037H3.36229V10.1504H5.36229ZM10.6377 10.1504H12.6377V8.15037H10.6377V10.1504ZM10.6377 16.8599H8.63771V18.8599H10.6377V16.8599ZM14.8571 16.8599V18.8599H16.8571V16.8599H14.8571ZM14.8571 6.59894H16.8571V5.60254L16.0618 5.0024L14.8571 6.59894ZM8 1.42513L9.20461 -0.171402L8 -1.08029L6.79539 -0.171402L8 1.42513ZM1.14286 6.59894L-0.061749 5.0024L-0.857143 5.60254V6.59894H1.14286ZM0 18H-2V20H0V18ZM0 6.02888L-1.20369 4.43165L-2 5.03176V6.02888H0ZM8 0L9.20369 -1.59723L8 -2.50434L6.79631 -1.59723L8 0ZM16 6.02888H18V5.03176L17.2037 4.43165L16 6.02888ZM16 18V20H18V18H16ZM9.49486 18H7.49486V20H9.49486V18ZM9.49486 11.2905H11.4949V9.29047H9.49486V11.2905ZM6.50514 11.2905V9.29047H4.50514V11.2905H6.50514ZM6.50514 18V20H8.50514V18H6.50514ZM1.14286 18.8599H5.36229V14.8599H1.14286V18.8599ZM7.36229 16.8599V10.1504H3.36229V16.8599H7.36229ZM5.36229 12.1504H10.6377V8.15037H5.36229V12.1504ZM8.63771 10.1504V16.8599H12.6377V10.1504H8.63771ZM10.6377 18.8599H14.8571V14.8599H10.6377V18.8599ZM16.8571 16.8599V6.59894H12.8571V16.8599H16.8571ZM16.0618 5.0024L9.20461 -0.171402L6.79539 3.02167L13.6525 8.19547L16.0618 5.0024ZM6.79539 -0.171402L-0.061749 5.0024L2.34746 8.19547L9.20461 3.02167L6.79539 -0.171402ZM-0.857143 6.59894V16.8599H3.14286V6.59894H-0.857143ZM2 18V6.02888H-2V18H2ZM1.20369 7.62611L9.20369 1.59723L6.79631 -1.59723L-1.20369 4.43165L1.20369 7.62611ZM6.79631 1.59723L14.7963 7.62611L17.2037 4.43165L9.20369 -1.59723L6.79631 1.59723ZM14 6.02888V18H18V6.02888H14ZM16 16H9.49486V20H16V16ZM11.4949 18V11.2905H7.49486V18H11.4949ZM9.49486 9.29047H6.50514V13.2905H9.49486V9.29047ZM4.50514 11.2905V18H8.50514V11.2905H4.50514ZM6.50514 16H0V20H6.50514V16Z" fill="black" mask="url(#path-1-inside-1_13_1069)"/>
</svg>
