<svg width="42" height="41" viewBox="0 0 42 41" fill="none" xmlns="http://www.w3.org/2000/svg">
<path d="M39.1112 11.3L42 8.5L33.2927 0L30.4244 2.82L33.2927 5.66L30.4244 8.5L26.0605 4.24L23.1717 1.4L20.2829 4.24L21.7171 5.66L2.56098 24.34C1.91176 24.9719 1.49839 25.7981 1.38696 26.6864C1.27553 27.5747 1.47249 28.4739 1.94634 29.24L4.60976 33.62L0 38.18L2.88878 41L7.56 36.5L12.0468 39.12C12.6673 39.4795 13.3741 39.6727 14.0956 39.68C14.6466 39.6884 15.1937 39.5883 15.7042 39.3855C16.2146 39.1828 16.6779 38.8816 17.0663 38.5L36.202 19.82L37.6566 21.22L40.5658 18.4L37.6566 15.56L33.2927 11.3L36.202 8.5L39.1112 11.3ZM33.2927 16.96L14.1571 35.66L8.70732 32.5L5.47024 27.18L7.2322 25.44L13.0302 31.1L15.9395 28.28L10.1415 22.62L13.0302 19.8L18.8283 25.44L21.7171 22.62L15.919 16.96L18.8283 14.14L24.6263 19.8L27.5151 16.96L21.7171 11.3L24.6263 8.5L33.2927 16.96Z" fill="black"/>
</svg>
