<svg width="10" height="13" viewBox="0 0 10 13" fill="none" xmlns="http://www.w3.org/2000/svg">
<path d="M4.74979 5.88774C4.32286 5.88774 3.9134 5.7245 3.61151 5.43393C3.30962 5.14336 3.14002 4.74926 3.14002 4.33834C3.14002 3.92741 3.30962 3.53331 3.61151 3.24274C3.9134 2.95217 4.32286 2.78893 4.74979 2.78893C5.17673 2.78893 5.58618 2.95217 5.88807 3.24274C6.18997 3.53331 6.35957 3.92741 6.35957 4.33834C6.35957 4.54181 6.31793 4.74329 6.23703 4.93127C6.15613 5.11925 6.03756 5.29006 5.88807 5.43393C5.73859 5.57781 5.56113 5.69194 5.36583 5.7698C5.17052 5.84767 4.96119 5.88774 4.74979 5.88774ZM4.74979 0C3.55437 0 2.4079 0.457073 1.56261 1.27067C0.717313 2.08427 0.242432 3.18774 0.242432 4.33834C0.242432 7.59209 4.74979 12.3952 4.74979 12.3952C4.74979 12.3952 9.25716 7.59209 9.25716 4.33834C9.25716 3.18774 8.78227 2.08427 7.93698 1.27067C7.09169 0.457073 5.94522 0 4.74979 0Z" fill="#0E8080"/>
</svg>
